<svg width="57" height="61" viewBox="0 0 57 61" fill="none" xmlns="http://www.w3.org/2000/svg">
<path d="M48.6976 27.1126C49.6109 21.927 49.7329 16.4448 49.1897 10.6536C49.1365 10.0865 48.7641 9.59979 48.2328 9.40138L26.0119 1.09308C25.6794 0.968974 25.3143 0.968974 24.9818 1.09308L2.77498 9.39617C2.23703 9.59756 1.86238 10.0932 1.81657 10.6692C0.204921 30.8684 6.07881 47.1878 24.6633 59.7483C25.1651 60.0879 25.825 60.0835 26.3223 59.7372C27.9879 58.5779 29.5529 57.3948 31.0205 56.1865" stroke="#FF9700" stroke-width="2" stroke-miterlimit="10" stroke-linecap="round"/>
<circle cx="37.9779" cy="38.8881" r="6.7416" stroke="#FF9700" stroke-width="2"/>
<circle cx="31.6798" cy="49.6798" r="1.67979" stroke="#FF9700" stroke-width="2"/>
<circle cx="28.1519" cy="28.4663" r="3.46631" stroke="#FF9700" stroke-width="2"/>
<circle cx="51.9722" cy="39.7808" r="3.46631" stroke="#FF9700" stroke-width="2"/>
<line x1="31.5391" y1="31.0341" x2="33.3257" y2="32.8206" stroke="#FF9700" stroke-width="2"/>
<line x1="45.124" y1="39.0791" x2="48.1016" y2="39.0791" stroke="#FF9700" stroke-width="2"/>
<line x1="34.6096" y1="45.4428" x2="32.823" y2="47.8248" stroke="#FF9700" stroke-width="2"/>
</svg>
