<svg width="68" height="68" viewBox="0 0 68 68" fill="none" xmlns="http://www.w3.org/2000/svg">
<path d="M34 5.66675L39.7007 20.4882C40.4997 22.5657 40.8992 23.6044 41.5202 24.4781C42.071 25.2525 42.7476 25.9291 43.522 26.4797C44.3958 27.101 45.4345 27.5005 47.5119 28.2995L62.3333 34.0001L47.5119 39.7008C45.4345 40.4998 44.3958 40.8992 43.522 41.5203C42.7476 42.0711 42.071 42.7477 41.5202 43.5221C40.8992 44.3959 40.4997 45.4346 39.7007 47.512L34 62.3334L28.2995 47.512C27.5004 45.4346 27.1009 44.3959 26.4796 43.5221C25.929 42.7477 25.2524 42.0711 24.4781 41.5203C23.6043 40.8992 22.5656 40.4998 20.4881 39.7008L5.66667 34.0001L20.4881 28.2995C22.5656 27.5005 23.6043 27.101 24.4781 26.4797C25.2524 25.9291 25.929 25.2525 26.4796 24.4781C27.1009 23.6044 27.5004 22.5656 28.2995 20.4881L34 5.66675Z" stroke="#A3A3A3" stroke-width="2" stroke-linecap="round" stroke-linejoin="round"/>
</svg>
