<svg width="68" height="68" viewBox="0 0 68 68" fill="none" xmlns="http://www.w3.org/2000/svg">
<path d="M34 48.1667C23.8288 48.1667 15.5834 39.9214 15.5834 29.75V12.9074C15.5834 11.4393 15.5834 10.7052 15.8488 10.1359C16.1303 9.53221 16.6156 9.04697 17.2193 8.76545C17.7886 8.5 18.5226 8.5 19.9908 8.5H48.0092C49.4774 8.5 50.2115 8.5 50.7807 8.76545C51.3845 9.04697 51.8696 9.53221 52.1512 10.1359C52.4167 10.7052 52.4167 11.4393 52.4167 12.9074V29.75C52.4167 39.9214 44.1714 48.1667 34 48.1667ZM34 48.1667V59.5M48.1667 59.5H19.8334M62.3334 14.1667V28.3333M5.66669 14.1667V28.3333" stroke="#A3A3A3" stroke-width="2" stroke-linecap="round" stroke-linejoin="round"/>
</svg>
