<?xml version="1.0" encoding="UTF-8"?><svg id="Warstwa_1" xmlns="http://www.w3.org/2000/svg" viewBox="0 0 14.06 14"><defs><style>.cls-1{fill:#fff;}</style></defs><path class="cls-1" d="M12.94,0H1.12C.5,0,0,.5,0,1.12v11.76c0,.62.5,1.12,1.12,1.12h11.81c.62,0,1.12-.5,1.12-1.12V1.12c0-.62-.5-1.12-1.12-1.12ZM4.71,11.08c0,.06-.08.16-.13.16-.52.01-1.05,0-1.57,0-.03,0-.05-.02-.09-.03v-5.64c.23,0,.46,0,.69,0,.3,0,.59,0,.89,0,.14,0,.21.03.21.19,0,1.77,0,3.54,0,5.32ZM3.81,4.79c-.57,0-1.03-.47-1.02-1.04,0-.56.46-1.01,1.03-1,.55,0,1.02.46,1.02,1,0,.56-.48,1.04-1.03,1.04ZM11.3,11.07c0,.14-.05.19-.18.18-.46,0-.92,0-1.38,0-.15,0-.21-.05-.21-.21,0-.98,0-1.96,0-2.94,0-.48-.22-.82-.62-.95-.66-.21-1.5.07-1.52,1.04-.02.91,0,1.83,0,2.75,0,.3,0,.3-.3.31-.48,0-.96,0-1.45,0v-5.67h.57c.3,0,.61,0,.91,0,.12,0,.17.04.17.16,0,.18,0,.37,0,.5.28-.19.57-.42.89-.57.83-.4,1.84-.23,2.49.41.38.38.6.86.62,1.4.02,1.2,0,2.39.01,3.59Z"/></svg>