<?xml version="1.0" encoding="UTF-8"?><svg id="Warstwa_1" xmlns="http://www.w3.org/2000/svg" viewBox="0 0 14.06 14"><defs><style>.cls-1{fill:#fff;}</style></defs><path class="cls-1" d="M14.06,1.12v11.76c0,.62-.5,1.12-1.12,1.12h-4.94v-4.94h1.61c.09-.66.18-1.31.27-1.98h-1.86s-.02-.02-.02-.02c0-.49-.05-.98.04-1.46.07-.4.28-.71.69-.81.18-.05.38-.04.57-.05.21,0,.42,0,.64,0,0-.04,0-.07,0-.1,0-.49,0-.98,0-1.47,0-.08-.02-.1-.1-.12-.63-.11-1.26-.18-1.91-.09-1.44.19-1.94,1.25-2.04,2.13-.06.54-.03,1.08-.04,1.63,0,.11,0,.23,0,.35h-1.75v1.97h1.74v4.95H1.12c-.62,0-1.12-.5-1.12-1.12V1.12C0,.5.5,0,1.12,0h11.81c.62,0,1.12.5,1.12,1.12Z"/></svg>