<?xml version="1.0" encoding="UTF-8"?><svg id="Warstwa_1" xmlns="http://www.w3.org/2000/svg" viewBox="0 0 14.06 14"><defs><style>.cls-1{fill:#fff;}</style></defs><path class="cls-1" d="M12.94,0H1.12C.5,0,0,.5,0,1.12v11.76c0,.62.5,1.12,1.12,1.12h11.81c.62,0,1.12-.5,1.12-1.12V1.12c0-.62-.5-1.12-1.12-1.12ZM7.03,11.26c-2.36,0-4.27-1.91-4.27-4.26s1.92-4.26,4.27-4.26,4.27,1.91,4.27,4.26-1.92,4.26-4.27,4.26ZM7.83,3.53c.64.92,1.02,2,1.1,3.12h1.65c-.15-1.53-1.28-2.78-2.75-3.12ZM7.83,10.47c1.47-.34,2.6-1.59,2.75-3.12h-1.65c-.08,1.12-.47,2.2-1.1,3.12ZM8.23,6.65c-.09-1.1-.51-2.15-1.2-3.02-.69.87-1.11,1.91-1.2,3.02h2.4ZM5.83,7.35c.09,1.1.51,2.15,1.2,3.02.69-.87,1.11-1.91,1.2-3.02h-2.4ZM6.23,3.53c-1.47.34-2.6,1.59-2.75,3.12h1.65c.08-1.12.47-2.2,1.1-3.12ZM3.48,7.35c.15,1.53,1.28,2.78,2.75,3.12-.64-.92-1.02-2-1.1-3.12h-1.65Z"/></svg>