<svg width="40" height="40" viewBox="0 0 40 40" fill="none" xmlns="http://www.w3.org/2000/svg">
<g id="Warstwa_1" clip-path="url(#clip0_416_137)">
<g id="Clip path group">
<mask id="mask0_416_137" style="mask-type:luminance" maskUnits="userSpaceOnUse" x="0" y="0" width="40" height="40">
<g id="clippath">
<path id="Vector" d="M40 0H0V40H40V0Z" fill="white"/>
</g>
</mask>
<g mask="url(#mask0_416_137)">
<g id="Group">
<path id="Vector_2" d="M4 31.9999V32.9999C4 34.6521 5.34783 35.9999 7 35.9999C8.65217 35.9999 10 34.6521 10 32.9999V28.9999C10 27.3478 8.65217 25.9999 7 25.9999C5.34783 25.9999 4 27.3478 4 28.9999V31.9999ZM33 25.9999C31.3478 25.9999 30 27.3478 30 28.9999V32.9999C30 34.6521 31.3478 35.9999 33 35.9999C34.6522 35.9999 36 34.6521 36 32.9999V28.9999C36 27.3478 34.6522 25.9999 33 25.9999ZM33 40C29.1401 40 26 36.8599 26 32.9999V28.9999C26 25.14 29.1401 21.9999 33 21.9999C34.0725 21.9999 35.0918 22.2415 36 22.6763V19.9999C36 11.1787 28.8213 3.99995 20 3.99995C11.1787 3.99995 4 11.1787 4 19.9999V22.6763C4.90821 22.2415 5.92754 21.9999 7 21.9999C10.8599 21.9999 14 25.14 14 28.9999V32.9999C14 36.8599 10.8599 40 7 40C3.1401 40 0 36.8599 0 32.9999V19.9999C0 17.2995 0.52657 14.6811 1.57488 12.2125C2.57971 9.83087 4.02415 7.69077 5.8599 5.85502C7.69565 4.01927 9.83575 2.57483 12.2174 1.57C14.686 0.526518 17.3043 -0.00488281 20.0048 -0.00488281C22.7053 -0.00488281 25.3237 0.521687 27.7923 1.57C30.1739 2.57483 32.314 4.01927 34.1498 5.85502C35.9855 7.69077 37.4299 9.83087 38.4348 12.2125C39.4783 14.6811 40.0097 17.2995 40.0097 19.9999V32.9999C40.0097 36.8599 36.8696 40 33.0097 40" fill="#ED1C24"/>
</g>
</g>
</g>
</g>
<defs>
<clipPath id="clip0_416_137">
<rect width="40" height="40" fill="white"/>
</clipPath>
</defs>
</svg>
