<svg width="42" height="42" viewBox="0 0 42 42" fill="none" xmlns="http://www.w3.org/2000/svg">
<g id="Vector">
<mask id="path-1-outside-1_416_145" maskUnits="userSpaceOnUse" x="0" y="0" width="42" height="42" fill="black">
<rect fill="white" width="42" height="42"/>
<path d="M2.77237 40.4259C2.31892 40.4259 1.86546 40.2553 1.51928 39.914C0.826907 39.2313 0.826907 38.1294 1.51928 37.4468L5.35658 33.668C3.40136 30.1476 2.31404 26.6711 2.11413 23.3214C1.8996 19.6499 2.74799 16.2368 4.63983 13.1845C7.23866 8.99129 11.7488 5.66595 17.6827 3.57421C23.6752 1.45809 31.1109 0.624318 39.195 1.15579C40.0776 1.2143 40.7846 1.90667 40.8431 2.77945C41.3794 10.7466 40.5359 18.0799 38.3905 23.9845C36.2695 29.8307 32.9003 34.2775 28.6437 36.8373C25.5426 38.7048 22.0856 39.5434 18.3556 39.3289C14.9571 39.1338 11.427 38.0611 7.85789 36.1303L4.02059 39.914C3.67441 40.2553 3.22095 40.4259 2.7675 40.4259M10.4811 33.551C16.532 36.5545 22.1393 36.6715 26.8006 33.863C30.36 31.7177 33.2172 27.8999 35.0603 22.8095C36.9034 17.7288 37.7079 11.4438 37.4007 4.54938C30.4087 4.24708 24.0311 5.03697 18.8773 6.85566C13.7187 8.67436 9.83749 11.4926 7.66773 14.9983C4.82023 19.5914 4.93726 25.1206 7.97979 31.0838L16.3516 22.8338C17.044 22.1512 18.1655 22.1512 18.853 22.8338C19.5453 23.5165 19.5453 24.6184 18.853 25.301L10.4811 33.5559V33.551Z"/>
</mask>
<path d="M2.77237 40.4259C2.31892 40.4259 1.86546 40.2553 1.51928 39.914C0.826907 39.2313 0.826907 38.1294 1.51928 37.4468L5.35658 33.668C3.40136 30.1476 2.31404 26.6711 2.11413 23.3214C1.8996 19.6499 2.74799 16.2368 4.63983 13.1845C7.23866 8.99129 11.7488 5.66595 17.6827 3.57421C23.6752 1.45809 31.1109 0.624318 39.195 1.15579C40.0776 1.2143 40.7846 1.90667 40.8431 2.77945C41.3794 10.7466 40.5359 18.0799 38.3905 23.9845C36.2695 29.8307 32.9003 34.2775 28.6437 36.8373C25.5426 38.7048 22.0856 39.5434 18.3556 39.3289C14.9571 39.1338 11.427 38.0611 7.85789 36.1303L4.02059 39.914C3.67441 40.2553 3.22095 40.4259 2.7675 40.4259M10.4811 33.551C16.532 36.5545 22.1393 36.6715 26.8006 33.863C30.36 31.7177 33.2172 27.8999 35.0603 22.8095C36.9034 17.7288 37.7079 11.4438 37.4007 4.54938C30.4087 4.24708 24.0311 5.03697 18.8773 6.85566C13.7187 8.67436 9.83749 11.4926 7.66773 14.9983C4.82023 19.5914 4.93726 25.1206 7.97979 31.0838L16.3516 22.8338C17.044 22.1512 18.1655 22.1512 18.853 22.8338C19.5453 23.5165 19.5453 24.6184 18.853 25.301L10.4811 33.5559V33.551Z" fill="white"/>
<path d="M1.51928 37.4468L0.817625 36.7343L0.817205 36.7347L1.51928 37.4468ZM5.35658 33.668L6.05823 34.3805L6.59993 33.8471L6.23079 33.1825L5.35658 33.668ZM2.11413 23.3214L1.11584 23.3798L1.11591 23.381L2.11413 23.3214ZM4.63983 13.1845L5.4898 13.7113L5.48982 13.7113L4.63983 13.1845ZM17.6827 3.57421L18.0152 4.51733L18.0157 4.51715L17.6827 3.57421ZM39.195 1.15579L39.2612 0.157977L39.2606 0.157941L39.195 1.15579ZM40.8431 2.77945L39.8453 2.84634L39.8453 2.84661L40.8431 2.77945ZM38.3905 23.9845L37.4506 23.6431L37.4505 23.6435L38.3905 23.9845ZM28.6437 36.8373L28.1283 35.9803L28.1278 35.9806L28.6437 36.8373ZM18.3556 39.3289L18.413 38.3305L18.4129 38.3305L18.3556 39.3289ZM7.85789 36.1303L8.33371 35.2508L7.68277 34.8986L7.15578 35.4182L7.85789 36.1303ZM4.02059 39.914L4.72267 40.6261L4.72271 40.626L4.02059 39.914ZM10.4811 33.551L10.9257 32.6553L9.4811 31.9382V33.551H10.4811ZM26.8006 33.863L27.3167 34.7196L27.3168 34.7195L26.8006 33.863ZM35.0603 22.8095L34.1202 22.4684L34.12 22.469L35.0603 22.8095ZM37.4007 4.54938L38.3997 4.50487L38.359 3.58988L37.4439 3.55032L37.4007 4.54938ZM18.8773 6.85566L19.2098 7.79877L19.2101 7.79867L18.8773 6.85566ZM7.66773 14.9983L8.51765 15.5253L8.51805 15.5246L7.66773 14.9983ZM7.97979 31.0838L7.08903 31.5383L7.70942 32.7542L8.68169 31.7961L7.97979 31.0838ZM16.3516 22.8338L17.0535 23.5461L17.0537 23.5459L16.3516 22.8338ZM18.853 22.8338L18.1484 23.5435L18.1509 23.5459L18.853 22.8338ZM18.853 25.301L18.1509 24.5889L18.1508 24.589L18.853 25.301ZM10.4811 33.5559H9.4811V35.9462L11.1832 34.2679L10.4811 33.5559ZM2.77237 39.4259C2.56909 39.4259 2.37165 39.35 2.22135 39.2019L0.817205 40.6261C1.35928 41.1605 2.06875 41.4259 2.77237 41.4259V39.4259ZM2.22135 39.2019C1.92622 38.9109 1.92622 38.4499 2.22135 38.1589L0.817205 36.7347C-0.272402 37.8089 -0.272402 39.5518 0.817205 40.6261L2.22135 39.2019ZM2.22093 38.1593L6.05823 34.3805L4.65492 32.9555L0.817625 36.7343L2.22093 38.1593ZM6.23079 33.1825C4.33424 29.7677 3.30177 26.4357 3.11236 23.2619L1.11591 23.381C1.32632 26.9066 2.46848 30.5275 4.48236 34.1535L6.23079 33.1825ZM3.11243 23.2631C2.90957 19.7913 3.70958 16.5836 5.4898 13.7113L3.78985 12.6577C1.78641 15.8901 0.889625 19.5085 1.11584 23.3798L3.11243 23.2631ZM5.48982 13.7113C7.93898 9.75957 12.2364 6.55441 18.0152 4.51733L17.3503 2.63109C11.2613 4.7775 6.53833 8.223 3.78984 12.6577L5.48982 13.7113ZM18.0157 4.51715C23.8502 2.45679 31.1444 1.62868 39.1294 2.15363L39.2606 0.157941C31.0773 -0.380046 23.5001 0.459385 17.3498 2.63128L18.0157 4.51715ZM39.1289 2.1536C39.5257 2.1799 39.8212 2.48746 39.8453 2.84634L41.8408 2.71256C41.7479 1.32588 40.6294 0.248689 39.2612 0.157977L39.1289 2.1536ZM39.8453 2.84661C40.3748 10.712 39.5373 17.9 37.4506 23.6431L39.3304 24.326C41.5345 18.2598 42.384 10.7812 41.8408 2.71228L39.8453 2.84661ZM37.4505 23.6435C35.3873 29.3302 32.1427 33.5662 28.1283 35.9803L29.159 37.6943C33.6579 34.9888 37.1517 30.3312 39.3306 24.3256L37.4505 23.6435ZM28.1278 35.9806C25.2047 37.741 21.9485 38.5339 18.413 38.3305L18.2982 40.3272C22.2228 40.5529 25.8806 39.6686 29.1596 37.694L28.1278 35.9806ZM18.4129 38.3305C15.1857 38.1453 11.7975 37.1246 8.33371 35.2508L7.38207 37.0099C11.0566 38.9977 14.7286 40.1224 18.2983 40.3272L18.4129 38.3305ZM7.15578 35.4182L3.31848 39.2019L4.72271 40.626L8.56001 36.8424L7.15578 35.4182ZM3.31852 39.2019C3.16822 39.35 2.97078 39.4259 2.7675 39.4259V41.4259C3.47112 41.4259 4.18059 41.1605 4.72267 40.6261L3.31852 39.2019ZM10.0365 34.4467C16.3067 37.5591 22.2886 37.749 27.3167 34.7196L26.2845 33.0065C21.9899 35.594 16.7574 35.5499 10.9257 32.6553L10.0365 34.4467ZM27.3168 34.7195C31.1245 32.4244 34.103 28.3908 36.0006 23.1499L34.12 22.469C32.3314 27.409 29.5954 31.0109 26.2844 33.0066L27.3168 34.7195ZM36.0004 23.1505C37.8988 17.9173 38.7112 11.4954 38.3997 4.50487L36.4017 4.59389C36.7046 11.3922 35.908 17.5404 34.1202 22.4684L36.0004 23.1505ZM37.4439 3.55032C30.3592 3.24401 23.8481 4.04111 18.5446 5.91266L19.2101 7.79867C24.2141 6.03283 30.4582 5.25015 37.3575 5.54845L37.4439 3.55032ZM18.5448 5.91256C13.2418 7.78215 9.14148 10.717 6.81742 14.4721L8.51805 15.5246C10.5335 12.2682 14.1955 9.56657 19.2098 7.79877L18.5448 5.91256ZM6.81782 14.4714C3.73909 19.4375 3.93248 25.3516 7.08903 31.5383L8.87055 30.6293C5.94203 24.8896 5.90138 19.7453 8.51765 15.5253L6.81782 14.4714ZM8.68169 31.7961L17.0535 23.5461L15.6497 22.1216L7.27789 30.3715L8.68169 31.7961ZM17.0537 23.5459C17.3581 23.2458 17.8522 23.2494 18.1484 23.5435L19.5575 22.1242C18.4787 21.0531 16.7299 21.0566 15.6496 22.1217L17.0537 23.5459ZM18.1509 23.5459C18.446 23.8369 18.446 24.2979 18.1509 24.5889L19.555 26.0131C20.6446 24.9389 20.6446 23.196 19.555 22.1217L18.1509 23.5459ZM18.1508 24.589L9.77899 32.8438L11.1832 34.2679L19.5551 26.0131L18.1508 24.589ZM11.4811 33.5559V33.551H9.4811V33.5559H11.4811Z" fill="white" mask="url(#path-1-outside-1_416_145)"/>
</g>
</svg>
