<svg width="48" height="46" viewBox="0 0 48 46" fill="none" xmlns="http://www.w3.org/2000/svg">
<g id="Warstwa_1" clip-path="url(#clip0_416_148)">
<g id="Clip path group">
<mask id="mask0_416_148" style="mask-type:luminance" maskUnits="userSpaceOnUse" x="0" y="0" width="48" height="46">
<g id="clippath">
<path id="Vector" d="M48 0H0V45.7817H48V0Z" fill="white"/>
</g>
</mask>
<g mask="url(#mask0_416_148)">
<g id="Group">
<path id="Vector_2" d="M14.025 3.67323C11.3536 3.67323 8.77758 4.00716 6.76446 4.61777C4.97078 5.1616 4.18366 5.7579 3.93083 5.98688L3.62075 6.26834L3.93083 6.54979C4.18366 6.77877 4.96601 7.37507 6.76446 7.9189C8.77758 8.52952 11.3584 8.86345 14.025 8.86345C16.6917 8.86345 19.2725 8.52952 21.2904 7.9189C23.0841 7.37507 23.8712 6.77877 24.124 6.54979L24.4341 6.26834L24.124 5.98688C23.8712 5.7579 23.0841 5.1616 21.2904 4.61777C19.2773 4.00716 16.6965 3.67323 14.025 3.67323ZM3.67323 16.2337L3.75432 16.3387C3.86404 16.4818 4.5319 17.2165 6.76446 17.8939C8.77758 18.5045 11.3584 18.8384 14.025 18.8384C16.6917 18.8384 19.2725 18.5045 21.2904 17.8939C23.5182 17.2165 24.186 16.4818 24.3005 16.3387L24.3816 16.2337V10.6857L23.8569 10.9004C23.6708 10.9767 23.4753 11.0531 23.2749 11.1246C20.7752 12.031 17.4931 12.5319 14.0298 12.5319C10.5665 12.5319 7.27967 12.031 4.78473 11.1246C4.58438 11.0531 4.38879 10.9767 4.20274 10.9004L3.678 10.6857V16.2337H3.67323ZM3.67323 26.2087L3.75432 26.3137C3.86404 26.4568 4.5319 27.1914 6.76446 27.8688C8.77758 28.4794 11.3584 28.8134 14.025 28.8134C16.2338 28.8134 18.3614 28.5891 20.1932 28.1598C21.5719 27.8354 22.7645 27.3965 23.5516 26.9147L23.6374 26.8623L23.6852 26.7716C23.7949 26.5713 23.9094 26.3661 24.0286 26.1705C24.1193 26.0179 24.2147 25.87 24.3148 25.7221L24.3769 25.6267V20.6655L23.8521 20.8801C23.6661 20.9565 23.4705 21.0328 23.2701 21.1044C20.7704 22.0107 17.4884 22.5116 14.025 22.5116C10.5617 22.5116 7.2749 22.0107 4.77996 21.1044C4.57961 21.0328 4.38402 20.9565 4.19797 20.8801L3.67323 20.6655V26.2135V26.2087ZM3.67323 36.1837L3.75432 36.2886C3.86404 36.4317 4.5319 37.1664 6.76446 37.8438C8.77758 38.4544 11.3584 38.7883 14.025 38.7883C17.3739 38.7883 20.4985 38.2731 22.5975 37.3763L22.9171 37.2379L22.8074 36.9088C22.3924 35.6398 22.1729 34.3137 22.1634 32.9636V32.7346V32.6202V32.5772C22.1682 32.3721 22.1777 32.1622 22.192 31.9571L22.2254 31.4275L21.7102 31.5659C21.486 31.6231 21.257 31.6804 21.0233 31.7376C18.9243 32.229 16.5009 32.4866 14.0203 32.4866C10.5569 32.4866 7.27013 31.9857 4.77519 31.0793C4.57484 31.0077 4.37925 30.9314 4.1932 30.8551L3.66846 30.6404V36.1884L3.67323 36.1837ZM35.0817 23.6184C30.0155 23.6184 25.87 27.74 25.8366 32.8014V32.9493C25.8843 38.0012 30.0346 42.1085 35.0817 42.1085C40.1288 42.1085 44.3268 37.963 44.3268 32.8634C44.3268 27.7639 40.1813 23.6184 35.0817 23.6184ZM35.0817 45.7817C33.3405 45.7817 31.647 45.4383 30.0537 44.7656C28.5128 44.1169 27.1342 43.1819 25.9463 41.9988C25.5456 41.5981 25.164 41.164 24.8253 40.7203L24.6392 40.4818L24.3626 40.6106C23.4753 41.0209 22.4258 41.3739 21.2427 41.6601C19.0912 42.1848 16.5963 42.4615 14.025 42.4615C10.5617 42.4615 7.2749 41.9606 4.77996 41.0543C3.44902 40.5724 2.38044 39.9857 1.59809 39.3131C0.276685 38.1777 0 36.9899 0 36.1932V6.26834C0 5.47168 0.276685 4.28384 1.59809 3.14848C2.38044 2.47585 3.45379 1.88909 4.77996 1.40727C7.27967 0.500894 10.5617 0 14.025 0C17.4884 0 20.7752 0.500894 23.2701 1.40727C24.6011 1.88909 25.6696 2.47585 26.452 3.14848C27.7734 4.28384 28.0501 5.47168 28.0501 6.26834V22.0012L28.6178 21.672C29.0757 21.4049 29.5575 21.1664 30.0489 20.9612C31.6422 20.2886 33.3357 19.9451 35.0769 19.9451C36.8181 19.9451 38.5116 20.2886 40.1049 20.9612C41.641 21.61 43.0244 22.545 44.2123 23.7281C45.3954 24.9159 46.3304 26.2946 46.9791 27.8354C47.6518 29.4287 47.9952 31.1222 47.9952 32.8634C47.9952 34.6046 47.6518 36.2981 46.9791 37.8915C46.3304 39.4275 45.3954 40.811 44.2123 41.9988C43.0244 43.1819 41.6458 44.1169 40.1049 44.7656C38.5116 45.4383 36.8181 45.7817 35.0769 45.7817" fill="#ED1C24"/>
</g>
</g>
</g>
</g>
<defs>
<clipPath id="clip0_416_148">
<rect width="48" height="45.7817" fill="white"/>
</clipPath>
</defs>
</svg>
