<svg width="40" height="48" viewBox="0 0 40 48" fill="none" xmlns="http://www.w3.org/2000/svg">
<g id="Warstwa_1" clip-path="url(#clip0_416_156)">
<g id="Clip path group">
<mask id="mask0_416_156" style="mask-type:luminance" maskUnits="userSpaceOnUse" x="0" y="0" width="40" height="48">
<g id="clippath">
<path id="Vector" d="M40 0H0V47.6987H40V0Z" fill="white"/>
</g>
</mask>
<g mask="url(#mask0_416_156)">
<g id="Group">
<path id="Vector_2" d="M19.9975 4.49439C19.7254 4.67073 19.2064 5.0738 18.7026 5.46176C16.0171 7.54263 13.1704 8.84254 9.7443 9.55296C8.34866 9.84519 7.24525 10.0719 6.46933 10.2735C5.63295 10.4901 5.4163 10.6211 5.38103 10.6463C4.94773 10.9536 4.83688 11.0897 4.62527 11.5784C4.44388 12.0016 4.44388 13.3116 4.44388 15.1204V23.5648C4.44388 27.661 6.41894 31.7925 10.3136 35.8535C13.6541 39.335 17.5438 41.8341 19.5642 43.0131C19.7254 43.1088 19.9018 43.2096 19.9975 43.26C20.0882 43.2146 20.2696 43.1088 20.4308 43.0131C22.4512 41.8341 26.3409 39.335 29.6813 35.8535C33.576 31.7925 35.5511 27.661 35.5511 23.5648V15.1204C35.5511 13.3116 35.5511 12.0016 35.3697 11.5784C35.1581 11.0947 35.0472 10.9536 34.6139 10.6463C34.5787 10.6211 34.362 10.4951 33.5256 10.2735C32.7497 10.0719 31.6463 9.84015 30.2507 9.55296C26.8245 8.84254 23.9778 7.54263 21.2924 5.46176C20.7885 5.06877 20.2696 4.67073 19.9975 4.49439ZM19.9975 47.6988C19.675 47.6988 19.3526 47.6686 19.0654 47.6081C18.3701 47.457 17.9116 47.1899 17.3271 46.8473C15.1052 45.5525 10.8225 42.8015 7.10921 38.9269C5.00819 36.7352 3.34551 34.4579 2.17156 32.1553C0.730571 29.3388 0 26.4468 0 23.5598V15.1154C0 12.4249 0 11.0746 0.554226 9.80488C1.0883 8.57047 1.72818 7.78951 2.82151 7.01359C3.95516 6.21249 5.48684 5.89507 8.84242 5.19976C11.6186 4.62035 13.8254 3.6177 15.9869 1.94495C17.317 0.917109 17.9872 0.398152 18.8437 0.166384C19.675 -0.0603443 20.325 -0.0603443 21.1563 0.166384C22.0179 0.398152 22.683 0.91207 24.0131 1.93991C26.1746 3.61266 28.3814 4.61531 31.1576 5.19473C34.5132 5.89003 36.0448 6.21249 37.1785 7.00856C38.2769 7.78447 38.9117 8.56543 39.4458 9.79984C40 11.0695 40 12.4198 40 15.1103V23.5547C40 26.4367 39.2694 29.3287 37.8284 32.1503C36.6545 34.4528 34.9918 36.7302 32.8908 38.9219C29.1724 42.7964 24.8948 45.5474 22.6729 46.8423C22.0884 47.1799 21.6299 47.4519 20.9346 47.5981C20.6474 47.6585 20.325 47.6887 20.0025 47.6887" fill="#ED1C24"/>
</g>
</g>
</g>
</g>
<defs>
<clipPath id="clip0_416_156">
<rect width="40" height="47.6987" fill="white"/>
</clipPath>
</defs>
</svg>
