<svg width="166" height="20" viewBox="0 0 166 20" fill="none" xmlns="http://www.w3.org/2000/svg">
<g id="Warstwa_1" clip-path="url(#clip0_473_5762)">
<path id="Vector" d="M7.40207 5.34135C7.48524 5.53996 7.6793 5.65843 7.8803 5.65843C7.9496 5.65843 8.01891 5.64449 8.08476 5.61662C8.34813 5.50512 8.47288 5.19501 8.35852 4.9302L7.84564 3.71766C7.73475 3.45285 7.42633 3.32742 7.16296 3.4424C6.89959 3.5539 6.77483 3.864 6.88919 4.12881L7.40207 5.34135Z" fill="#1D1D1B"/>
<path id="Vector_2" d="M11.7065 5.55745C11.7688 5.58184 11.8347 5.59578 11.9005 5.59578C12.105 5.59578 12.3025 5.47383 12.3822 5.26825L12.8708 4.04526C12.9783 3.77696 12.85 3.47383 12.5832 3.36581C12.3164 3.2578 12.0149 3.38672 11.9075 3.65501L11.4188 4.87801C11.3114 5.1463 11.4396 5.44944 11.7065 5.55745Z" fill="#1D1D1B"/>
<path id="Vector_3" d="M4.9031 11.5645L3.69714 12.0801C3.43377 12.1916 3.30901 12.5018 3.42337 12.7666C3.50654 12.9652 3.7006 13.0836 3.9016 13.0836C3.9709 13.0836 4.03675 13.0697 4.10605 13.0418L5.31202 12.5261C5.57539 12.4146 5.70014 12.1045 5.58578 11.8397C5.47489 11.5749 5.16993 11.4495 4.9031 11.5645Z" fill="#1D1D1B"/>
<path id="Vector_4" d="M3.63517 7.99656L4.85153 8.48785C4.9139 8.51224 4.97975 8.52618 5.04559 8.52618C5.25005 8.52618 5.44758 8.40423 5.52728 8.19865C5.63471 7.93036 5.50649 7.62723 5.23965 7.51921L4.02329 7.02792C3.75646 6.91991 3.45497 7.04883 3.34754 7.31712C3.24011 7.58541 3.36833 7.88855 3.63517 7.99656Z" fill="#1D1D1B"/>
<path id="Vector_5" d="M12.4579 14.6307C12.3471 14.3659 12.0386 14.2405 11.7753 14.3555C11.5119 14.467 11.3871 14.7771 11.5015 15.0419L12.0144 16.2544C12.0975 16.453 12.2916 16.5715 12.4926 16.5715C12.5619 16.5715 12.6312 16.5576 12.6971 16.5297C12.9604 16.4182 13.0852 16.1081 12.9708 15.8433L12.4579 14.6307Z" fill="#1D1D1B"/>
<path id="Vector_6" d="M16.2289 11.979L15.0126 11.4842C14.7457 11.3762 14.4442 11.5051 14.3368 11.7734C14.2294 12.0417 14.3576 12.3448 14.6244 12.4529L15.8408 12.9476C15.9032 12.972 15.969 12.986 16.0348 12.986C16.2393 12.986 16.4368 12.864 16.5165 12.6584C16.624 12.3901 16.4957 12.087 16.2289 11.979Z" fill="#1D1D1B"/>
<path id="Vector_7" d="M14.7561 8.44594C14.8254 8.44594 14.8947 8.432 14.9605 8.40413L16.1665 7.88845C16.4299 7.77695 16.5546 7.46684 16.4403 7.20204C16.3259 6.93723 16.021 6.81179 15.7576 6.92677L14.5516 7.44245C14.2883 7.55395 14.1635 7.86406 14.2779 8.12887C14.361 8.32747 14.5551 8.44594 14.7561 8.44594Z" fill="#1D1D1B"/>
<path id="Vector_8" d="M8.1545 14.4146C7.88766 14.3066 7.58617 14.4355 7.47874 14.7038L6.99012 15.9268C6.88269 16.1951 7.01091 16.4983 7.27775 16.6063C7.34012 16.6307 7.40597 16.6446 7.47181 16.6446C7.67627 16.6446 7.8738 16.5227 7.9535 16.3171L8.44212 15.0941C8.54955 14.8258 8.42133 14.5227 8.1545 14.4146Z" fill="#1D1D1B"/>
<path id="Vector_9" d="M17.2023 0H2.65797C1.1921 0 0 1.19861 0 2.67247V17.2962C0 18.77 1.1921 19.9686 2.65797 19.9686H17.2023C18.6682 19.9686 19.8603 18.77 19.8603 17.2962V2.67247C19.8603 1.19861 18.6682 0 17.2023 0ZM1.03962 2.67247C1.03962 1.77352 1.76736 1.0453 2.65797 1.0453H17.2023C17.4587 1.0453 17.6978 1.1115 17.9127 1.21951L12.219 6.94425C11.9557 6.74216 11.6646 6.57491 11.3492 6.44599C10.4101 6.0662 9.3774 6.07317 8.4452 6.47387C7.51301 6.87456 6.78874 7.61324 6.41101 8.55749C6.03328 9.50174 6.04021 10.5401 6.43873 11.4774C6.56348 11.7735 6.72289 12.0418 6.90656 12.2857L1.21289 18.0139C1.10547 17.7979 1.03962 17.5575 1.03962 17.2997V2.67247ZM12.4685 8.90244C13.0646 10.3101 12.4096 11.9373 11.0096 12.5366C10.119 12.9199 9.13482 12.7875 8.38629 12.2787L12.2121 8.43206C12.3091 8.5784 12.3958 8.73519 12.4685 8.90244ZM7.39518 11.0697C7.10755 10.3868 7.10062 9.63415 7.37439 8.94774C7.64816 8.26132 8.1749 7.72474 8.85065 7.43554C9.1972 7.28571 9.56453 7.21254 9.9284 7.21254C10.2923 7.21254 10.6249 7.27875 10.9611 7.41463C11.1448 7.48781 11.3146 7.58188 11.4774 7.6899L7.65162 11.5366C7.55459 11.3902 7.46796 11.2334 7.39518 11.0662V11.0697ZM18.8206 17.2962C18.8206 18.1951 18.0929 18.9233 17.2023 18.9233H2.65797C2.40153 18.9233 2.16242 18.8571 1.94756 18.7491L7.64123 13.0244C8.29965 13.5226 9.10709 13.7979 9.93879 13.7979C10.4343 13.7979 10.9368 13.7003 11.4185 13.4948C13.3453 12.6725 14.2463 10.4251 13.425 8.48781C13.3002 8.19512 13.1408 7.92683 12.9572 7.67944L18.6508 1.95819C18.7583 2.17422 18.8241 2.41463 18.8241 2.67247V17.2962H18.8206Z" fill="#1D1D1B"/>
<path id="Vector_10" d="M54.7326 0.03125H40.1882C38.7224 0.03125 37.5303 1.22986 37.5303 2.70372V17.3274C37.5303 18.8013 38.7224 19.9999 40.1882 19.9999H54.7326C56.1984 19.9999 57.3905 18.8013 57.3905 17.3274V2.70372C57.3905 1.22986 56.1984 0.03125 54.7326 0.03125ZM38.5699 2.70372C38.5699 1.80477 39.2976 1.07655 40.1882 1.07655H54.7326C54.989 1.07655 55.2281 1.14275 55.443 1.25076L50.1374 6.58526V6.25425C50.1374 6.06609 50.0369 5.89536 49.8775 5.80128L47.5973 4.47724V2.92672C47.5973 2.63752 47.3651 2.40407 47.0775 2.40407C46.7898 2.40407 46.5577 2.63752 46.5577 2.92672V4.47724L44.2774 5.80128C44.118 5.89536 44.0175 6.06609 44.0175 6.25425V8.90233L41.7373 10.2264C41.5779 10.3204 41.4774 10.4912 41.4774 10.6793V13.6306C41.4774 13.8187 41.5779 13.9894 41.7373 14.0835L42.3368 14.4319L38.7432 18.0452C38.6357 17.8292 38.5699 17.5887 38.5699 17.3309V2.70372ZM44.5373 14.5016L44.0279 14.2055L46.5577 11.6619V13.3274L44.5373 14.5016ZM42.517 13.3274V10.9825L44.5373 9.80825L46.0552 10.6898L43.0957 13.6654L42.5135 13.3274H42.517ZM47.5973 10.979L49.6176 9.80477L51.6379 10.979V13.3239L49.6176 14.4981L47.5973 13.3239V10.979ZM46.8176 9.92324L45.0571 8.90233V6.55738L47.0775 5.38317L49.0978 6.55738V7.63055L46.8176 9.92324ZM56.3509 17.3274C56.3509 18.2264 55.6232 18.9546 54.7326 18.9546H40.1882C39.9318 18.9546 39.6927 18.8884 39.4778 18.7804L43.269 14.9685L44.0175 15.4041V17.0417C44.0175 17.3309 44.2497 17.5644 44.5373 17.5644C44.825 17.5644 45.0571 17.3309 45.0571 17.0417V15.4041L47.0809 14.2299L49.3612 15.5539C49.4409 15.5992 49.531 15.6236 49.6211 15.6236C49.7112 15.6236 49.8013 15.5992 49.881 15.5539L52.4211 14.08C52.5805 13.986 52.681 13.8152 52.681 13.6271V11.08L53.7449 10.8013C54.0222 10.7281 54.1885 10.4424 54.1157 10.1637C54.0429 9.88491 53.7588 9.71766 53.4815 9.79083L52.2375 10.1184L50.1409 8.90233V8.06261L56.1811 1.98944C56.2885 2.20547 56.3544 2.44588 56.3544 2.70372V17.3274H56.3509Z" fill="#1D1D1B"/>
<path id="Vector_11" d="M92.0207 0.03125H77.4763C76.0105 0.03125 74.8184 1.22986 74.8184 2.70372V17.3274C74.8184 18.8013 76.0105 19.9999 77.4763 19.9999H92.0207C93.4865 19.9999 94.6786 18.8013 94.6786 17.3274V2.70372C94.6786 1.22986 93.4865 0.03125 92.0207 0.03125ZM75.858 2.70372C75.858 1.80477 76.5857 1.07655 77.4763 1.07655H92.0207C92.2702 1.07655 92.5023 1.13926 92.7137 1.24031L86.4829 7.50512C86.2854 7.43195 86.0844 7.3762 85.8695 7.34484V6.7316C86.6285 6.50512 87.1864 5.80477 87.1864 4.97202C87.1864 3.9546 86.3616 3.12533 85.3497 3.12533C84.3378 3.12533 83.5165 3.9546 83.5165 4.97202C83.5165 5.80825 84.0745 6.50512 84.8299 6.7316V7.34484C83.2774 7.59571 82.0853 8.95111 82.0853 10.5818C82.0853 10.7839 82.1061 10.9825 82.1408 11.1776L81.5655 11.3832C81.3888 11.1393 81.1566 10.9337 80.8759 10.8013C80.4323 10.5887 79.9333 10.5644 79.4724 10.7281C79.0115 10.8919 78.6407 11.2299 78.4293 11.6758C78.2179 12.1218 78.1937 12.6201 78.36 13.087C78.5229 13.5504 78.859 13.9232 79.3026 14.1358C79.4447 14.2055 79.5937 14.2508 79.7462 14.2786L76.0174 18.0278C75.9169 17.8152 75.8545 17.5818 75.8545 17.3309V2.70372H75.858ZM87.578 10.5783C87.578 11.8117 86.58 12.8152 85.3532 12.8152C84.622 12.8152 83.974 12.4563 83.5685 11.9093L86.677 8.78386C87.2211 9.19153 87.578 9.8431 87.578 10.5783ZM89.3835 13.6375C89.3835 13.6375 89.3973 13.6375 89.4043 13.6375C89.6087 13.6375 89.8028 13.7142 89.9518 13.857C90.1043 14.0034 90.1944 14.202 90.2013 14.4145C90.2082 14.6271 90.1285 14.8326 89.983 14.986C89.8374 15.1427 89.6399 15.2299 89.4285 15.2368C89.2171 15.2368 89.0127 15.1637 88.8602 15.0173C88.7043 14.871 88.6176 14.6724 88.6107 14.4598C88.6038 14.2473 88.6835 14.0417 88.829 13.8884C88.9746 13.7351 89.1721 13.6445 89.3835 13.6375ZM79.7531 13.1846C79.5625 13.094 79.417 12.9302 79.3442 12.7316C79.2714 12.5295 79.2853 12.3135 79.3754 12.1218C79.4655 11.9302 79.6284 11.7839 79.8259 11.7107C79.9125 11.6793 80.0026 11.6654 80.0927 11.6654C80.2105 11.6654 80.3249 11.6898 80.4323 11.7421C80.6229 11.8326 80.7685 11.9964 80.8412 12.195C80.914 12.3971 80.9002 12.6131 80.8101 12.8048C80.72 12.9964 80.5571 13.1427 80.3595 13.2159C80.1586 13.2891 79.9437 13.2752 79.7531 13.1846ZM83.1249 10.5783C83.1249 9.52602 83.8527 8.64101 84.8299 8.40407V8.99641C84.8299 9.04519 84.8403 9.09397 84.8507 9.13926L83.1423 10.857C83.1319 10.7664 83.1215 10.6724 83.1215 10.5783H83.1249ZM85.3532 5.76644C84.9131 5.76644 84.5596 5.40756 84.5596 4.96853C84.5596 4.52951 84.9166 4.16714 85.3532 4.16714C85.7898 4.16714 86.1503 4.52602 86.1503 4.96853C86.1503 5.41104 85.7933 5.76644 85.3532 5.76644ZM93.6425 17.3274C93.6425 18.2264 92.9147 18.9546 92.0241 18.9546H77.4798C77.2164 18.9546 76.9704 18.8849 76.7486 18.7699L82.8304 12.6549C83.4299 13.3901 84.3378 13.8605 85.3567 13.8605C86.1191 13.8605 86.8191 13.5957 87.3735 13.1532L87.7859 13.5887C87.6438 13.864 87.5641 14.1671 87.5745 14.4842C87.5884 14.9755 87.7929 15.4354 88.1463 15.7734C88.4998 16.1114 88.9538 16.2786 89.4077 16.2786C89.8929 16.2786 90.3815 16.087 90.7419 15.7037C91.0781 15.3448 91.2583 14.8779 91.2444 14.3832C91.2305 13.8919 91.0261 13.4319 90.6726 13.094C90.0731 12.526 89.1929 12.4494 88.5102 12.8361L88.0805 12.3832C88.4236 11.864 88.6211 11.2438 88.6211 10.5748C88.6211 9.5539 88.1533 8.63752 87.4221 8.03473L93.4588 1.96505C93.5732 2.18804 93.6425 2.43543 93.6425 2.70024V17.3239V17.3274Z" fill="#1D1D1B"/>
<path id="Vector_12" d="M138.825 9.06284H137.958L139.137 7.53322C139.033 7.55064 138.901 7.57852 138.752 7.57852C137.941 7.57852 137.362 6.95134 137.362 6.07678C137.362 5.14298 138.059 4.48096 139.036 4.48096C140.013 4.48096 140.706 5.12556 140.706 6.02103C140.706 6.35901 140.557 6.77712 140.363 7.028L138.825 9.06284ZM138.107 6.07329C138.107 6.61685 138.489 7.00709 139.012 7.00709C139.559 7.01406 139.951 6.61685 139.951 6.07329C139.951 5.52974 139.559 5.10813 139.012 5.10813C138.489 5.1151 138.107 5.5158 138.107 6.07329Z" fill="#1D1D1B"/>
<path id="Vector_13" d="M144.684 5.67244C144.684 6.14979 144.393 6.58185 143.988 6.70031C144.497 6.81878 144.871 7.32749 144.871 7.88498C144.871 8.66198 144.151 9.20554 143.146 9.20554C142.141 9.20554 141.42 8.65502 141.42 7.88498C141.42 7.32749 141.787 6.81878 142.304 6.70031C141.898 6.58185 141.607 6.14979 141.607 5.67244C141.607 4.96512 142.255 4.46338 143.146 4.46338C144.036 4.46338 144.684 4.95118 144.684 5.67244ZM142.224 7.80136C142.224 8.25083 142.609 8.57139 143.146 8.57139C143.683 8.57139 144.074 8.25083 144.074 7.80136C144.074 7.35188 143.683 7.03132 143.146 7.03132C142.609 7.03132 142.224 7.35536 142.224 7.80136ZM142.338 5.75955C142.338 6.15327 142.681 6.44247 143.149 6.44247C143.617 6.44247 143.96 6.15327 143.96 5.75955C143.96 5.36582 143.624 5.09753 143.149 5.09753C142.674 5.09753 142.338 5.37279 142.338 5.75955Z" fill="#1D1D1B"/>
<path id="Vector_14" d="M146.871 4.3728C147.63 4.3728 148.153 4.89894 148.153 5.662C148.153 6.42507 147.63 6.94423 146.871 6.94423C146.112 6.94423 145.589 6.4181 145.589 5.662C145.589 4.9059 146.112 4.3728 146.871 4.3728ZM146.871 5.01043C146.486 5.01043 146.223 5.27176 146.223 5.662C146.223 6.05225 146.483 6.31357 146.871 6.31357C147.259 6.31357 147.512 6.04528 147.512 5.662C147.512 5.27873 147.256 5.01043 146.871 5.01043ZM150.427 4.439L147.325 9.05921H146.577L149.678 4.439H150.427ZM150.139 6.55747C150.891 6.55747 151.414 7.0836 151.414 7.84667C151.414 8.60974 150.891 9.1289 150.139 9.1289C149.387 9.1289 148.864 8.60277 148.864 7.84667C148.864 7.09057 149.387 6.55747 150.139 6.55747ZM150.139 7.1951C149.758 7.1951 149.491 7.45643 149.491 7.84667C149.491 8.23691 149.758 8.49127 150.139 8.49127C150.52 8.49127 150.787 8.22995 150.787 7.84667C150.787 7.4634 150.52 7.1951 150.139 7.1951Z" fill="#1D1D1B"/>
<path id="Vector_15" d="M140.8 13.2092C140.8 14.2161 140.09 14.9234 139.081 14.9234C138.073 14.9234 137.362 14.2161 137.362 13.2092C137.362 12.2022 138.066 11.4949 139.081 11.4949C140.097 11.4949 140.8 12.2022 140.8 13.2092ZM140.128 13.2092C140.128 12.5646 139.684 12.1011 139.081 12.1011C138.478 12.1011 138.042 12.5646 138.042 13.2092C138.042 13.8538 138.471 14.3172 139.081 14.3172C139.691 14.3172 140.128 13.8538 140.128 13.2092Z" fill="#1D1D1B"/>
<path id="Vector_16" d="M143.364 14.9234C142.879 14.9234 142.474 14.7108 142.2 14.352V14.7979H141.538V10.1777H142.217V12.0488C142.484 11.6969 142.89 11.4913 143.364 11.4913C144.286 11.4913 144.952 12.2126 144.952 13.2056C144.952 14.1986 144.279 14.9199 143.364 14.9199V14.9234ZM142.193 13.2091C142.193 13.8293 142.63 14.2857 143.233 14.2857C143.836 14.2857 144.279 13.8398 144.279 13.2091C144.279 12.5784 143.836 12.1324 143.233 12.1324C142.63 12.1324 142.193 12.5889 142.193 13.2091Z" fill="#1D1D1B"/>
<path id="Vector_17" d="M145.779 11.6168H146.452V15.2231C146.452 15.8258 146.077 16.2265 145.516 16.2265C145.312 16.2265 145.072 16.1952 144.913 16.1394L144.92 15.575C145.031 15.6133 145.187 15.6307 145.312 15.6307C145.592 15.6238 145.779 15.4286 145.779 15.1429V11.6168ZM145.693 10.6865C145.693 10.4495 145.866 10.2788 146.109 10.2788C146.351 10.2788 146.531 10.4495 146.531 10.6865C146.531 10.9234 146.358 11.1046 146.109 11.1046C145.859 11.1046 145.693 10.9304 145.693 10.6865Z" fill="#1D1D1B"/>
<path id="Vector_18" d="M147.28 13.1707C147.28 12.195 147.991 11.4912 148.975 11.4912C149.959 11.4912 150.656 12.1916 150.656 13.1741C150.656 13.2508 150.649 13.3449 150.642 13.418L147.977 13.4111C148.057 13.9755 148.452 14.3518 148.968 14.3518C149.391 14.3518 149.782 14.101 149.904 13.7491L150.538 13.8431C150.413 14.2682 150.07 14.6132 149.633 14.7943H149.647C149.623 14.8013 149.592 14.8083 149.567 14.8187C149.543 14.8257 149.512 14.8362 149.481 14.8431C149.082 14.986 148.951 15.1811 148.951 15.4006C148.951 15.8327 149.356 16.101 149.942 16.1254V16.5435C149.113 16.5435 148.535 16.1114 148.535 15.4912C148.535 15.2543 148.66 15.0522 148.871 14.9093C147.942 14.8605 147.284 14.1463 147.284 13.1637L147.28 13.1707ZM149.952 12.9128C149.876 12.4111 149.477 12.0626 148.954 12.0626C148.431 12.0626 148.07 12.4076 147.984 12.9128H149.952Z" fill="#1D1D1B"/>
<path id="Vector_19" d="M151.553 12.1498H151.067V11.6167H151.591L151.677 10.8467H152.232V11.6167H153.005V12.1498H152.232V13.8606C152.232 14.1498 152.405 14.3484 152.693 14.3484C152.779 14.3484 152.928 14.331 153.046 14.2927V14.8362C152.883 14.892 152.661 14.9233 152.485 14.9233C151.916 14.9233 151.549 14.5087 151.549 13.9024V12.1498H151.553Z" fill="#1D1D1B"/>
<path id="Vector_20" d="M157.076 13.2092C157.076 14.2161 156.366 14.9234 155.358 14.9234C154.349 14.9234 153.639 14.2161 153.639 13.2092C153.639 12.2022 154.342 11.4949 155.358 11.4949C156.373 11.4949 157.076 12.2022 157.076 13.2092ZM156.404 13.2092C156.404 12.5646 155.96 12.1011 155.358 12.1011C154.755 12.1011 154.318 12.5646 154.318 13.2092C154.318 13.8538 154.748 14.3172 155.358 14.3172C155.967 14.3172 156.404 13.8538 156.404 13.2092Z" fill="#1D1D1B"/>
<path id="Vector_21" d="M159.163 14.9303C158.321 14.9303 157.725 14.4216 157.725 13.7213H158.341C158.348 14.0976 158.691 14.3728 159.163 14.3728C159.579 14.3728 159.884 14.1777 159.884 13.9164C159.884 13.5854 159.391 13.5018 159.069 13.4599C158.335 13.3484 157.766 13.2544 157.773 12.4948C157.773 11.9129 158.328 11.4878 159.045 11.4878C159.859 11.4878 160.452 11.9443 160.459 12.5784H159.825C159.825 12.2648 159.489 12.0453 159.035 12.0453C158.691 12.0453 158.411 12.2335 158.404 12.4913C158.404 12.7282 158.646 12.8049 159.152 12.892C159.755 12.993 160.535 13.122 160.535 13.8432C160.542 14.4739 159.967 14.9338 159.166 14.9338L159.163 14.9303ZM160.168 10.1917L159.308 11.2439H158.685L159.464 10.1917H160.168Z" fill="#1D1D1B"/>
<path id="Vector_22" d="M164.406 12.7003L163.758 12.7804C163.657 12.3658 163.273 12.0731 162.836 12.0731C162.275 12.0731 161.834 12.5504 161.834 13.2055C161.841 13.864 162.271 14.3379 162.836 14.3379C163.283 14.3379 163.65 14.0417 163.765 13.6376L164.413 13.7177C164.281 14.4111 163.616 14.9198 162.836 14.9198C161.866 14.9198 161.162 14.1985 161.162 13.2055C161.162 12.2125 161.866 11.4912 162.832 11.4912C163.636 11.4912 164.295 11.9999 164.409 12.7003H164.406Z" fill="#1D1D1B"/>
<path id="Vector_23" d="M165.161 10.6865C165.161 10.4495 165.334 10.2788 165.584 10.2788C165.833 10.2788 166 10.4495 166 10.6865C166 10.9234 165.826 11.1046 165.584 11.1046C165.341 11.1046 165.161 10.9304 165.161 10.6865ZM165.92 11.6168V14.798H165.248V11.6168H165.92Z" fill="#1D1D1B"/>
<path id="Vector_24" d="M129.377 0.03125H114.833C113.367 0.03125 112.175 1.22986 112.175 2.70372V17.3274C112.175 18.8013 113.367 19.9999 114.833 19.9999H129.377C130.843 19.9999 132.035 18.8013 132.035 17.3274V2.70372C132.035 1.22986 130.843 0.03125 129.377 0.03125ZM130.995 17.3274C130.995 18.2264 130.268 18.9546 129.377 18.9546H114.833C113.939 18.9546 113.214 18.2229 113.214 17.3274V2.70372C113.214 1.80477 113.942 1.07655 114.833 1.07655H129.377C130.271 1.07655 130.995 1.80825 130.995 2.70372V17.3274Z" fill="#1D1D1B"/>
<path id="Vector_25" d="M120.427 5.05933C117.838 5.05933 116.036 6.86072 116.036 9.40776C116.036 11.9548 117.838 13.7562 120.427 13.7562C123.015 13.7562 124.831 11.9687 124.831 9.40776C124.831 6.84678 123.029 5.05933 120.427 5.05933ZM120.427 12.5611C118.659 12.5506 117.405 11.244 117.405 9.40776C117.405 7.57152 118.659 6.2649 120.427 6.2649C122.194 6.2649 123.459 7.57152 123.459 9.40776C123.459 11.244 122.205 12.5611 120.427 12.5611Z" fill="#1D1D1B"/>
<path id="Vector_26" d="M128.175 12.5679C128.175 11.6724 127.482 11.0173 126.539 11.0173C125.687 11.0173 124.97 11.6794 124.831 12.5957L125.576 12.749C125.649 12.1393 126.054 11.7003 126.533 11.7003C127.039 11.7003 127.406 12.0731 127.406 12.5888C127.406 13.0696 127.108 13.4041 126.754 13.7247L124.88 15.4424V15.9163H128.092V15.2543H126.096L127.274 14.1776C127.894 13.6166 128.179 13.2473 128.179 12.5644L128.175 12.5679Z" fill="#1D1D1B"/>
</g>
<defs>
<clipPath id="clip0_473_5762">
<rect width="166" height="20" fill="white"/>
</clipPath>
</defs>
</svg>
